<svg xmlns="http://www.w3.org/2000/svg" xmlns:xlink="http://www.w3.org/1999/xlink" width="1024" zoomAndPan="magnify" viewBox="0 0 768 767.999994" height="1024" preserveAspectRatio="xMidYMid meet" version="1.0"><defs><g/><clipPath id="9889df5843"><path d="M 74 0.320312 L 487 0.320312 L 487 160 L 74 160 Z M 74 0.320312 " clip-rule="nonzero"/></clipPath><clipPath id="5b7c4879e8"><path d="M 12 58 L 82 58 L 82 159.679688 L 12 159.679688 Z M 12 58 " clip-rule="nonzero"/></clipPath><clipPath id="a2bc95de58"><path d="M 111 58 L 181 58 L 181 159.679688 L 111 159.679688 Z M 111 58 " clip-rule="nonzero"/></clipPath><clipPath id="d838a46c82"><path d="M 209 58 L 279 58 L 279 159.679688 L 209 159.679688 Z M 209 58 " clip-rule="nonzero"/></clipPath><clipPath id="916d05fabb"><path d="M 308 58 L 395 58 L 395 159.679688 L 308 159.679688 Z M 308 58 " clip-rule="nonzero"/></clipPath><clipPath id="d218b0b50d"><rect x="0" width="413" y="0" height="160"/></clipPath><clipPath id="678ab274a0"><path d="M 0.558594 129 L 558.320312 129 L 558.320312 288.800781 L 0.558594 288.800781 Z M 0.558594 129 " clip-rule="nonzero"/></clipPath><clipPath id="190a109b1b"><path d="M 15 59 L 85 59 L 85 159.800781 L 15 159.800781 Z M 15 59 " clip-rule="nonzero"/></clipPath><clipPath id="0caea49cf8"><path d="M 114 59 L 184 59 L 184 159.800781 L 114 159.800781 Z M 114 59 " clip-rule="nonzero"/></clipPath><clipPath id="f8b7c03696"><path d="M 212 59 L 282 59 L 282 159.800781 L 212 159.800781 Z M 212 59 " clip-rule="nonzero"/></clipPath><clipPath id="3cde49c6d3"><path d="M 311 59 L 381 59 L 381 159.800781 L 311 159.800781 Z M 311 59 " clip-rule="nonzero"/></clipPath><clipPath id="4dc226e242"><path d="M 409 59 L 496 59 L 496 159.800781 L 409 159.800781 Z M 409 59 " clip-rule="nonzero"/></clipPath><clipPath id="51614a1145"><path d="M 525 59 L 543 59 L 543 159.800781 L 525 159.800781 Z M 525 59 " clip-rule="nonzero"/></clipPath><clipPath id="1c85a699a1"><rect x="0" width="559" y="0" height="160"/></clipPath><clipPath id="ca8afa7c2a"><rect x="0" width="559" y="0" height="289"/></clipPath></defs><g transform="matrix(1, 0, 0, 1, 112, 124)"><g clip-path="url(#ca8afa7c2a)"><g clip-path="url(#9889df5843)"><g transform="matrix(1, 0, 0, 1, 74, -0.000000000000056843)"><g clip-path="url(#d218b0b50d)"><g fill="#ff00ff" fill-opacity="1"><g transform="translate(-5.262802, 156.437148)"><g><path d="M 7.171875 -100.4375 L 76.046875 -100.4375 L 76.046875 -83.21875 L 24.390625 -83.21875 L 24.390625 -58.828125 L 58.828125 -58.828125 L 58.828125 -41.609375 L 24.390625 -41.609375 L 24.390625 -17.21875 L 76.046875 -17.21875 L 76.046875 0 L 7.171875 0 Z M 7.171875 -100.4375 "/></g></g></g><g fill="#ff00ff" fill-opacity="1"><g transform="translate(93.309176, 156.437148)"><g><path d="M 24.390625 -83.21875 L 24.390625 -100.4375 L 58.828125 -100.4375 L 58.828125 -83.21875 L 76.046875 -83.21875 L 76.046875 0 L 58.828125 0 L 58.828125 -41.609375 L 24.390625 -41.609375 L 24.390625 0 L 7.171875 0 L 7.171875 -83.21875 L 24.390625 -83.21875 L 24.390625 -58.828125 L 58.828125 -58.828125 L 58.828125 -83.21875 Z M 24.390625 -83.21875 "/></g></g></g><g fill="#ff00ff" fill-opacity="1"><g transform="translate(191.737664, 156.437148)"><g><path d="M 24.390625 -83.21875 L 24.390625 -58.828125 L 58.828125 -58.828125 L 58.828125 -41.609375 L 76.046875 -41.609375 L 76.046875 0 L 58.828125 0 L 58.828125 -41.609375 L 24.390625 -41.609375 L 24.390625 0 L 7.171875 0 L 7.171875 -100.4375 L 58.828125 -100.4375 L 58.828125 -83.21875 L 76.046875 -83.21875 L 76.046875 -58.828125 L 58.828125 -58.828125 L 58.828125 -83.21875 Z M 24.390625 -83.21875 "/></g></g></g><g fill="#ff00ff" fill-opacity="1"><g transform="translate(290.166153, 156.437148)"><g><path d="M 7.171875 -100.4375 L 24.390625 -100.4375 L 24.390625 -83.21875 L 41.609375 -83.21875 L 41.609375 -66 L 58.828125 -66 L 58.828125 -48.78125 L 76.046875 -48.78125 L 76.046875 -100.4375 L 93.265625 -100.4375 L 93.265625 0 L 76.046875 0 L 76.046875 -31.5625 L 58.828125 -31.5625 L 58.828125 -48.78125 L 41.609375 -48.78125 L 41.609375 -66 L 24.390625 -66 L 24.390625 0 L 7.171875 0 Z M 7.171875 -100.4375 "/></g></g></g><g clip-path="url(#5b7c4879e8)"><g fill="#00ffff" fill-opacity="1"><g transform="translate(5.527194, 159.127392)"><g><path d="M 7.171875 -100.4375 L 76.046875 -100.4375 L 76.046875 -83.21875 L 24.390625 -83.21875 L 24.390625 -58.828125 L 58.828125 -58.828125 L 58.828125 -41.609375 L 24.390625 -41.609375 L 24.390625 -17.21875 L 76.046875 -17.21875 L 76.046875 0 L 7.171875 0 Z M 7.171875 -100.4375 "/></g></g></g></g><g clip-path="url(#a2bc95de58)"><g fill="#00ffff" fill-opacity="1"><g transform="translate(104.099172, 159.127392)"><g><path d="M 24.390625 -83.21875 L 24.390625 -100.4375 L 58.828125 -100.4375 L 58.828125 -83.21875 L 76.046875 -83.21875 L 76.046875 0 L 58.828125 0 L 58.828125 -41.609375 L 24.390625 -41.609375 L 24.390625 0 L 7.171875 0 L 7.171875 -83.21875 L 24.390625 -83.21875 L 24.390625 -58.828125 L 58.828125 -58.828125 L 58.828125 -83.21875 Z M 24.390625 -83.21875 "/></g></g></g></g><g clip-path="url(#d838a46c82)"><g fill="#00ffff" fill-opacity="1"><g transform="translate(202.527661, 159.127392)"><g><path d="M 24.390625 -83.21875 L 24.390625 -58.828125 L 58.828125 -58.828125 L 58.828125 -41.609375 L 76.046875 -41.609375 L 76.046875 0 L 58.828125 0 L 58.828125 -41.609375 L 24.390625 -41.609375 L 24.390625 0 L 7.171875 0 L 7.171875 -100.4375 L 58.828125 -100.4375 L 58.828125 -83.21875 L 76.046875 -83.21875 L 76.046875 -58.828125 L 58.828125 -58.828125 L 58.828125 -83.21875 Z M 24.390625 -83.21875 "/></g></g></g></g><g clip-path="url(#916d05fabb)"><g fill="#00ffff" fill-opacity="1"><g transform="translate(300.956149, 159.127392)"><g><path d="M 7.171875 -100.4375 L 24.390625 -100.4375 L 24.390625 -83.21875 L 41.609375 -83.21875 L 41.609375 -66 L 58.828125 -66 L 58.828125 -48.78125 L 76.046875 -48.78125 L 76.046875 -100.4375 L 93.265625 -100.4375 L 93.265625 0 L 76.046875 0 L 76.046875 -31.5625 L 58.828125 -31.5625 L 58.828125 -48.78125 L 41.609375 -48.78125 L 41.609375 -66 L 24.390625 -66 L 24.390625 0 L 7.171875 0 Z M 7.171875 -100.4375 "/></g></g></g></g><g fill="#3b1b72" fill-opacity="1"><g transform="translate(0.132196, 157.78227)"><g><path d="M 7.171875 -100.4375 L 76.046875 -100.4375 L 76.046875 -83.21875 L 24.390625 -83.21875 L 24.390625 -58.828125 L 58.828125 -58.828125 L 58.828125 -41.609375 L 24.390625 -41.609375 L 24.390625 -17.21875 L 76.046875 -17.21875 L 76.046875 0 L 7.171875 0 Z M 7.171875 -100.4375 "/></g></g></g><g fill="#3b1b72" fill-opacity="1"><g transform="translate(98.704174, 157.78227)"><g><path d="M 24.390625 -83.21875 L 24.390625 -100.4375 L 58.828125 -100.4375 L 58.828125 -83.21875 L 76.046875 -83.21875 L 76.046875 0 L 58.828125 0 L 58.828125 -41.609375 L 24.390625 -41.609375 L 24.390625 0 L 7.171875 0 L 7.171875 -83.21875 L 24.390625 -83.21875 L 24.390625 -58.828125 L 58.828125 -58.828125 L 58.828125 -83.21875 Z M 24.390625 -83.21875 "/></g></g></g><g fill="#3b1b72" fill-opacity="1"><g transform="translate(197.132663, 157.78227)"><g><path d="M 24.390625 -83.21875 L 24.390625 -58.828125 L 58.828125 -58.828125 L 58.828125 -41.609375 L 76.046875 -41.609375 L 76.046875 0 L 58.828125 0 L 58.828125 -41.609375 L 24.390625 -41.609375 L 24.390625 0 L 7.171875 0 L 7.171875 -100.4375 L 58.828125 -100.4375 L 58.828125 -83.21875 L 76.046875 -83.21875 L 76.046875 -58.828125 L 58.828125 -58.828125 L 58.828125 -83.21875 Z M 24.390625 -83.21875 "/></g></g></g><g fill="#3b1b72" fill-opacity="1"><g transform="translate(295.561151, 157.78227)"><g><path d="M 7.171875 -100.4375 L 24.390625 -100.4375 L 24.390625 -83.21875 L 41.609375 -83.21875 L 41.609375 -66 L 58.828125 -66 L 58.828125 -48.78125 L 76.046875 -48.78125 L 76.046875 -100.4375 L 93.265625 -100.4375 L 93.265625 0 L 76.046875 0 L 76.046875 -31.5625 L 58.828125 -31.5625 L 58.828125 -48.78125 L 41.609375 -48.78125 L 41.609375 -66 L 24.390625 -66 L 24.390625 0 L 7.171875 0 Z M 7.171875 -100.4375 "/></g></g></g></g></g></g><g clip-path="url(#678ab274a0)"><g transform="matrix(1, 0, 0, 1, 0, 129)"><g clip-path="url(#1c85a699a1)"><g fill="#ff00ff" fill-opacity="1"><g transform="translate(-5.59923, 156.126668)"><g><path d="M 24.390625 -83.21875 L 24.390625 -58.828125 L 58.828125 -58.828125 L 58.828125 -41.609375 L 76.046875 -41.609375 L 76.046875 0 L 58.828125 0 L 58.828125 -41.609375 L 24.390625 -41.609375 L 24.390625 0 L 7.171875 0 L 7.171875 -100.4375 L 58.828125 -100.4375 L 58.828125 -83.21875 L 76.046875 -83.21875 L 76.046875 -58.828125 L 58.828125 -58.828125 L 58.828125 -83.21875 Z M 24.390625 -83.21875 "/></g></g></g><g fill="#ff00ff" fill-opacity="1"><g transform="translate(92.829259, 156.126668)"><g><path d="M 24.390625 -83.21875 L 24.390625 -100.4375 L 58.828125 -100.4375 L 58.828125 -83.21875 L 76.046875 -83.21875 L 76.046875 -17.21875 L 58.828125 -17.21875 L 58.828125 -83.21875 Z M 24.390625 -83.21875 L 24.390625 -17.21875 L 58.828125 -17.21875 L 58.828125 0 L 24.390625 0 L 24.390625 -17.21875 L 7.171875 -17.21875 L 7.171875 -83.21875 Z M 24.390625 -83.21875 "/></g></g></g><g fill="#ff00ff" fill-opacity="1"><g transform="translate(191.257748, 156.126668)"><g><path d="M 24.390625 -41.609375 L 24.390625 -17.21875 L 58.828125 -17.21875 L 58.828125 0 L 7.171875 0 L 7.171875 -100.4375 L 58.828125 -100.4375 L 58.828125 -83.21875 L 76.046875 -83.21875 L 76.046875 -58.828125 L 58.828125 -58.828125 L 58.828125 -83.21875 L 24.390625 -83.21875 L 24.390625 -58.828125 L 58.828125 -58.828125 L 58.828125 -41.609375 L 76.046875 -41.609375 L 76.046875 -17.21875 L 58.828125 -17.21875 L 58.828125 -41.609375 Z M 24.390625 -41.609375 "/></g></g></g><g fill="#ff00ff" fill-opacity="1"><g transform="translate(289.686236, 156.126668)"><g><path d="M 24.390625 -17.21875 L 58.828125 -17.21875 L 58.828125 0 L 24.390625 0 L 24.390625 -17.21875 L 7.171875 -17.21875 L 7.171875 -100.4375 L 24.390625 -100.4375 Z M 58.828125 -100.4375 L 76.046875 -100.4375 L 76.046875 -17.21875 L 58.828125 -17.21875 Z M 58.828125 -100.4375 "/></g></g></g><g fill="#ff00ff" fill-opacity="1"><g transform="translate(388.114725, 156.126668)"><g><path d="M 7.171875 -100.4375 L 24.390625 -100.4375 L 24.390625 -75.609375 L 41.609375 -75.609375 L 41.609375 -58.390625 L 58.828125 -58.390625 L 58.828125 -41.328125 L 76.046875 -41.328125 L 76.046875 -24.109375 L 93.265625 -24.109375 L 93.265625 0 L 76.046875 0 L 76.046875 -24.109375 L 58.828125 -24.109375 L 58.828125 -41.1875 L 41.609375 -41.1875 L 41.609375 -24.109375 L 24.390625 -24.109375 L 24.390625 -41.328125 L 41.609375 -41.328125 L 41.609375 -58.390625 L 24.390625 -58.390625 L 24.390625 -75.609375 L 7.171875 -75.609375 Z M 93.265625 -75.609375 L 76.046875 -75.609375 L 76.046875 -100.4375 L 93.265625 -100.4375 Z M 7.171875 -24.109375 L 24.390625 -24.109375 L 24.390625 0 L 7.171875 0 Z M 76.046875 -58.390625 L 58.828125 -58.390625 L 58.828125 -75.609375 L 76.046875 -75.609375 Z M 76.046875 -58.390625 "/></g></g></g><g fill="#ff00ff" fill-opacity="1"><g transform="translate(503.760882, 156.126668)"><g><path d="M 7.171875 -100.4375 L 24.390625 -100.4375 L 24.390625 -34.4375 L 7.171875 -34.4375 Z M 7.171875 -17.21875 L 24.390625 -17.21875 L 24.390625 0 L 7.171875 0 Z M 7.171875 -17.21875 "/></g></g></g><g clip-path="url(#190a109b1b)"><g fill="#00ffff" fill-opacity="1"><g transform="translate(8.671395, 159.684715)"><g><path d="M 24.390625 -83.21875 L 24.390625 -58.828125 L 58.828125 -58.828125 L 58.828125 -41.609375 L 76.046875 -41.609375 L 76.046875 0 L 58.828125 0 L 58.828125 -41.609375 L 24.390625 -41.609375 L 24.390625 0 L 7.171875 0 L 7.171875 -100.4375 L 58.828125 -100.4375 L 58.828125 -83.21875 L 76.046875 -83.21875 L 76.046875 -58.828125 L 58.828125 -58.828125 L 58.828125 -83.21875 Z M 24.390625 -83.21875 "/></g></g></g></g><g clip-path="url(#0caea49cf8)"><g fill="#00ffff" fill-opacity="1"><g transform="translate(107.099883, 159.684715)"><g><path d="M 24.390625 -83.21875 L 24.390625 -100.4375 L 58.828125 -100.4375 L 58.828125 -83.21875 L 76.046875 -83.21875 L 76.046875 -17.21875 L 58.828125 -17.21875 L 58.828125 -83.21875 Z M 24.390625 -83.21875 L 24.390625 -17.21875 L 58.828125 -17.21875 L 58.828125 0 L 24.390625 0 L 24.390625 -17.21875 L 7.171875 -17.21875 L 7.171875 -83.21875 Z M 24.390625 -83.21875 "/></g></g></g></g><g clip-path="url(#f8b7c03696)"><g fill="#00ffff" fill-opacity="1"><g transform="translate(205.528372, 159.684715)"><g><path d="M 24.390625 -41.609375 L 24.390625 -17.21875 L 58.828125 -17.21875 L 58.828125 0 L 7.171875 0 L 7.171875 -100.4375 L 58.828125 -100.4375 L 58.828125 -83.21875 L 76.046875 -83.21875 L 76.046875 -58.828125 L 58.828125 -58.828125 L 58.828125 -83.21875 L 24.390625 -83.21875 L 24.390625 -58.828125 L 58.828125 -58.828125 L 58.828125 -41.609375 L 76.046875 -41.609375 L 76.046875 -17.21875 L 58.828125 -17.21875 L 58.828125 -41.609375 Z M 24.390625 -41.609375 "/></g></g></g></g><g clip-path="url(#3cde49c6d3)"><g fill="#00ffff" fill-opacity="1"><g transform="translate(303.956861, 159.684715)"><g><path d="M 24.390625 -17.21875 L 58.828125 -17.21875 L 58.828125 0 L 24.390625 0 L 24.390625 -17.21875 L 7.171875 -17.21875 L 7.171875 -100.4375 L 24.390625 -100.4375 Z M 58.828125 -100.4375 L 76.046875 -100.4375 L 76.046875 -17.21875 L 58.828125 -17.21875 Z M 58.828125 -100.4375 "/></g></g></g></g><g clip-path="url(#4dc226e242)"><g fill="#00ffff" fill-opacity="1"><g transform="translate(402.385349, 159.684715)"><g><path d="M 7.171875 -100.4375 L 24.390625 -100.4375 L 24.390625 -75.609375 L 41.609375 -75.609375 L 41.609375 -58.390625 L 58.828125 -58.390625 L 58.828125 -41.328125 L 76.046875 -41.328125 L 76.046875 -24.109375 L 93.265625 -24.109375 L 93.265625 0 L 76.046875 0 L 76.046875 -24.109375 L 58.828125 -24.109375 L 58.828125 -41.1875 L 41.609375 -41.1875 L 41.609375 -24.109375 L 24.390625 -24.109375 L 24.390625 -41.328125 L 41.609375 -41.328125 L 41.609375 -58.390625 L 24.390625 -58.390625 L 24.390625 -75.609375 L 7.171875 -75.609375 Z M 93.265625 -75.609375 L 76.046875 -75.609375 L 76.046875 -100.4375 L 93.265625 -100.4375 Z M 7.171875 -24.109375 L 24.390625 -24.109375 L 24.390625 0 L 7.171875 0 Z M 76.046875 -58.390625 L 58.828125 -58.390625 L 58.828125 -75.609375 L 76.046875 -75.609375 Z M 76.046875 -58.390625 "/></g></g></g></g><g clip-path="url(#51614a1145)"><g fill="#00ffff" fill-opacity="1"><g transform="translate(518.031506, 159.684715)"><g><path d="M 7.171875 -100.4375 L 24.390625 -100.4375 L 24.390625 -34.4375 L 7.171875 -34.4375 Z M 7.171875 -17.21875 L 24.390625 -17.21875 L 24.390625 0 L 7.171875 0 Z M 7.171875 -17.21875 "/></g></g></g></g><g fill="#3b1b72" fill-opacity="1"><g transform="translate(1.536083, 157.905692)"><g><path d="M 24.390625 -83.21875 L 24.390625 -58.828125 L 58.828125 -58.828125 L 58.828125 -41.609375 L 76.046875 -41.609375 L 76.046875 0 L 58.828125 0 L 58.828125 -41.609375 L 24.390625 -41.609375 L 24.390625 0 L 7.171875 0 L 7.171875 -100.4375 L 58.828125 -100.4375 L 58.828125 -83.21875 L 76.046875 -83.21875 L 76.046875 -58.828125 L 58.828125 -58.828125 L 58.828125 -83.21875 Z M 24.390625 -83.21875 "/></g></g></g><g fill="#3b1b72" fill-opacity="1"><g transform="translate(99.964571, 157.905692)"><g><path d="M 24.390625 -83.21875 L 24.390625 -100.4375 L 58.828125 -100.4375 L 58.828125 -83.21875 L 76.046875 -83.21875 L 76.046875 -17.21875 L 58.828125 -17.21875 L 58.828125 -83.21875 Z M 24.390625 -83.21875 L 24.390625 -17.21875 L 58.828125 -17.21875 L 58.828125 0 L 24.390625 0 L 24.390625 -17.21875 L 7.171875 -17.21875 L 7.171875 -83.21875 Z M 24.390625 -83.21875 "/></g></g></g><g fill="#3b1b72" fill-opacity="1"><g transform="translate(198.39306, 157.905692)"><g><path d="M 24.390625 -41.609375 L 24.390625 -17.21875 L 58.828125 -17.21875 L 58.828125 0 L 7.171875 0 L 7.171875 -100.4375 L 58.828125 -100.4375 L 58.828125 -83.21875 L 76.046875 -83.21875 L 76.046875 -58.828125 L 58.828125 -58.828125 L 58.828125 -83.21875 L 24.390625 -83.21875 L 24.390625 -58.828125 L 58.828125 -58.828125 L 58.828125 -41.609375 L 76.046875 -41.609375 L 76.046875 -17.21875 L 58.828125 -17.21875 L 58.828125 -41.609375 Z M 24.390625 -41.609375 "/></g></g></g><g fill="#3b1b72" fill-opacity="1"><g transform="translate(296.821549, 157.905692)"><g><path d="M 24.390625 -17.21875 L 58.828125 -17.21875 L 58.828125 0 L 24.390625 0 L 24.390625 -17.21875 L 7.171875 -17.21875 L 7.171875 -100.4375 L 24.390625 -100.4375 Z M 58.828125 -100.4375 L 76.046875 -100.4375 L 76.046875 -17.21875 L 58.828125 -17.21875 Z M 58.828125 -100.4375 "/></g></g></g><g fill="#3b1b72" fill-opacity="1"><g transform="translate(395.250037, 157.905692)"><g><path d="M 7.171875 -100.4375 L 24.390625 -100.4375 L 24.390625 -75.609375 L 41.609375 -75.609375 L 41.609375 -58.390625 L 58.828125 -58.390625 L 58.828125 -41.328125 L 76.046875 -41.328125 L 76.046875 -24.109375 L 93.265625 -24.109375 L 93.265625 0 L 76.046875 0 L 76.046875 -24.109375 L 58.828125 -24.109375 L 58.828125 -41.1875 L 41.609375 -41.1875 L 41.609375 -24.109375 L 24.390625 -24.109375 L 24.390625 -41.328125 L 41.609375 -41.328125 L 41.609375 -58.390625 L 24.390625 -58.390625 L 24.390625 -75.609375 L 7.171875 -75.609375 Z M 93.265625 -75.609375 L 76.046875 -75.609375 L 76.046875 -100.4375 L 93.265625 -100.4375 Z M 7.171875 -24.109375 L 24.390625 -24.109375 L 24.390625 0 L 7.171875 0 Z M 76.046875 -58.390625 L 58.828125 -58.390625 L 58.828125 -75.609375 L 76.046875 -75.609375 Z M 76.046875 -58.390625 "/></g></g></g><g fill="#3b1b72" fill-opacity="1"><g transform="translate(510.896194, 157.905692)"><g><path d="M 7.171875 -100.4375 L 24.390625 -100.4375 L 24.390625 -34.4375 L 7.171875 -34.4375 Z M 7.171875 -17.21875 L 24.390625 -17.21875 L 24.390625 0 L 7.171875 0 Z M 7.171875 -17.21875 "/></g></g></g></g></g></g></g></g></svg>